<svg xmlns="http://www.w3.org/2000/svg" width="256" height="256" viewBox="0 0 256 256" role="img" aria-label="Smart city">
  <rect width="256" height="256" rx="32" fill="#EEF2FF"/>
  <rect x="52" y="92" width="52" height="120" rx="8" fill="#64748B"/>
  <rect x="112" y="64" width="60" height="148" rx="8" fill="#475569"/>
  <rect x="180" y="108" width="40" height="104" rx="8" fill="#94A3B8"/>
  <rect x="64" y="108" width="12" height="12" fill="#E2E8F0"/>
  <rect x="84" y="108" width="12" height="12" fill="#E2E8F0"/>
  <rect x="64" y="132" width="12" height="12" fill="#E2E8F0"/>
  <rect x="84" y="132" width="12" height="12" fill="#E2E8F0"/>
  <rect x="124" y="88" width="12" height="12" fill="#E2E8F0"/>
  <rect x="144" y="88" width="12" height="12" fill="#E2E8F0"/>
  <rect x="124" y="112" width="12" height="12" fill="#E2E8F0"/>
  <rect x="144" y="112" width="12" height="12" fill="#E2E8F0"/>
  <rect x="124" y="136" width="12" height="12" fill="#E2E8F0"/>
  <rect x="144" y="136" width="12" height="12" fill="#E2E8F0"/>
</svg>
